<svg width="518" height="676" viewBox="0 0 518 676" fill="none" xmlns="http://www.w3.org/2000/svg">
<g clip-path="url(#clip0_1_583)">
<mask id="mask0_1_583" style="mask-type:alpha" maskUnits="userSpaceOnUse" x="0" y="0" width="518" height="676">
<path d="M518 0H0V676H518V0Z" fill="#211F54"/>
</mask>
<g mask="url(#mask0_1_583)">
<path d="M67.4787 761.438C67.4787 761.438 44.3947 641.944 44.3332 617.375C44.2593 583.37 70.3335 569.832 70.3335 569.832L60.2065 541H115.886L107.088 569.636C107.088 569.636 136.436 585.164 132.338 620.433C124.684 686.366 112.502 761.389 112.502 761.389L67.4787 761.438Z" fill="#383669"/>
<path d="M209.857 67.874H-20.5117V481.056H209.857V67.874Z" fill="#504E83"/>
<path d="M198.267 79.8525H-11.3173V468.734H198.267V79.8525Z" fill="#383669"/>
<path d="M219.6 484.763L209.858 481.042V60.8701H219.6V484.763Z" fill="#36346B"/>
<path d="M40.0729 331.049L94.5795 280.541C101.471 274.145 110.493 267.249 119.358 270.392C123.634 271.956 126.845 275.552 131.027 277.288C139.375 280.76 148.93 275.724 155.351 269.376C161.773 263.027 166.848 255.052 174.632 250.439C182.417 245.826 194.508 246.405 198.361 254.583V309.563L119.17 343.371L40.0729 331.049Z" fill="#423F76"/>
<path d="M-11.3173 299.445C8.74681 291.298 28.7639 298.226 43.1111 314.41C46.134 317.819 48.8906 321.759 53.0413 323.636C58.6642 326.185 65.1643 324.277 71.2885 323.636C79.7157 322.806 88.2086 324.319 95.829 328.005C103.449 331.692 109.901 337.41 114.471 344.527L47.4967 377.365L-11.3173 376.943V299.445Z" fill="#8689AA"/>
<path d="M198.283 299.696C185.063 293.332 173.441 301.026 161.256 309.188C149.07 317.351 137.762 327.796 123.446 331.08C113.891 333.269 103.648 332.05 94.4225 335.334C75.6271 342.026 64.6631 365.873 44.787 367.014C33.964 367.64 24.253 361.088 14.589 356.162C4.92507 351.237 -2.64006 346.577 -11.3173 353.16V468.734H198.283V299.696Z" fill="#6E7191"/>
<path d="M172.422 199.606C176.77 181.038 165.218 162.466 146.62 158.125C128.022 153.783 109.42 165.316 105.071 183.884C100.723 202.452 112.274 221.024 130.873 225.365C149.471 229.707 168.073 218.174 172.422 199.606Z" fill="#747799"/>
<path d="M202.825 191.722H-11.3173V195.866H202.825V191.722Z" fill="#504E83"/>
<path d="M202.825 284.323H-11.3173V288.467H202.825V284.323Z" fill="#504E83"/>
<path d="M202.825 376.943H-11.3173V381.087H202.825V376.943Z" fill="#6E7191"/>
<path d="M88.1882 193.786V479.759H98.7763V193.786H88.1882Z" fill="#504E83"/>
<path d="M33.8388 79.8525H29.046V193.801H33.8388V79.8525Z" fill="#504E83"/>
<path d="M75.2202 79.8525H70.4274V193.801H75.2202V79.8525Z" fill="#504E83"/>
<path d="M116.585 79.8525H111.793V193.801H116.585V79.8525Z" fill="#504E83"/>
<path d="M157.966 79.8525H153.173V193.801H157.966V79.8525Z" fill="#504E83"/>
<path d="M219.6 56.6001H-30.2688V67.8745H219.6V56.6001Z" fill="#36346B"/>
<path d="M226.194 486.153H-37.1766V496.661H226.194V486.153Z" fill="#6E7191"/>
<path d="M209.858 481.039L226.194 486.152H-37.1766L-20.5271 481.039H209.858Z" fill="#504E83"/>
<path d="M146.176 289.992C137.922 291.305 134.225 301.454 134.946 309.789C135.666 318.123 139.096 326.255 138.172 334.574C137.013 345.129 129.025 354.042 128.086 364.628C126.989 377.138 135.823 388.162 138.47 400.406C139.754 406.364 139.566 412.65 141.79 418.326C143.678 423.162 147.187 427.194 151.721 429.734C156.254 432.273 161.53 433.163 166.647 432.251C171.765 431.339 176.407 428.683 179.78 424.734C183.154 420.786 185.05 415.791 185.145 410.602C185.333 401.016 179.413 391.993 180.133 382.455C180.666 375.387 184.832 368.694 183.923 361.673C182.874 353.307 175.105 347.38 172.364 339.405C169.623 331.431 172.27 322.658 171.315 314.276C169.623 299.249 161.275 288.772 146.176 289.992Z" fill="#05C168"/>
<path d="M103.964 362.659C102.554 376.591 108.663 392.964 115.883 404.989C123.151 417.08 134.084 426.548 147.099 432.025C148.556 432.635 150.373 433.151 151.61 432.166C152.046 431.686 152.372 431.117 152.567 430.499C152.762 429.881 152.82 429.228 152.738 428.585C152.835 413.81 148.136 399.401 139.343 387.516C130.55 375.631 118.138 366.91 103.964 362.659Z" fill="#05C168"/>
<g opacity="0.1">
<path opacity="0.1" d="M103.964 362.658C102.554 376.591 108.663 392.963 115.883 404.988C123.151 417.079 134.084 426.548 147.099 432.025C148.556 432.635 150.373 433.151 151.61 432.166C152.046 431.685 152.372 431.117 152.567 430.498C152.762 429.88 152.82 429.227 152.738 428.585C152.835 413.81 148.136 399.4 139.343 387.515C130.55 375.631 118.138 366.909 103.964 362.658Z" fill="black"/>
</g>
<path d="M164.704 461.141C164.536 460.899 164.399 460.636 164.297 460.359L163.31 458.076C162.464 456.09 161.211 453.229 159.629 449.726C151.327 431.402 141.132 413.992 129.212 397.779C126.941 394.652 125.062 392.181 123.73 390.477L122.164 388.491C121.98 388.267 121.818 388.026 121.678 387.771C121.678 387.771 121.913 387.959 122.289 388.397L123.856 390.289C125.265 391.931 127.207 394.37 129.557 397.451C141.79 413.519 152.054 430.99 160.131 449.491C161.697 453.041 162.84 455.934 163.592 457.967L164.454 460.312C164.565 460.579 164.649 460.857 164.704 461.141Z" fill="#EFF0F7"/>
<path d="M155.745 328.428C155.821 328.873 155.868 329.322 155.886 329.773C155.964 330.711 156.058 331.993 156.168 333.604C156.387 337.013 156.7 341.813 157.076 347.677C157.828 359.593 158.893 376.043 160.209 394.198C161.524 412.353 162.762 428.819 163.686 440.718C164.14 446.614 164.5 451.399 164.767 454.792C164.876 456.356 164.955 457.685 165.017 458.623C165.059 459.07 165.059 459.521 165.017 459.968C164.914 459.531 164.845 459.086 164.814 458.639C164.72 457.7 164.579 456.418 164.406 454.823C164.093 451.414 163.639 446.629 163.075 440.75C162.01 428.85 160.663 412.415 159.379 394.245C158.094 376.074 157.123 359.608 156.512 347.693C156.246 341.782 156.027 336.981 155.854 333.619C155.854 332.056 155.76 330.726 155.729 329.773C155.697 329.325 155.703 328.875 155.745 328.428Z" fill="#EFF0F7"/>
<path d="M143.238 447.6C143.055 444.166 145.79 441.281 149.229 441.281H171.814C175.128 441.281 177.814 443.968 177.814 447.281V466.879C177.814 471.317 176.048 475.573 172.905 478.71C169.762 481.848 165.5 483.611 161.055 483.611C156.764 483.609 152.637 481.966 149.523 479.02C146.409 476.074 144.544 472.048 144.311 467.771L143.238 447.6Z" fill="#312E72"/>
<path d="M177.97 453.48C177.97 453.48 177.532 453.23 176.686 452.948C175.496 452.593 174.235 452.544 173.021 452.808C171.207 453.254 169.439 453.872 167.743 454.653C166.676 455.087 165.561 455.392 164.422 455.56C163.188 455.707 161.938 455.643 160.726 455.372C158.467 454.786 156.245 454.071 154.069 453.23C152.321 452.616 150.469 452.351 148.618 452.448C147.383 452.513 146.185 452.896 145.141 453.558C144.405 454.059 144.092 454.45 144.029 454.403C144.232 453.966 144.545 453.589 144.938 453.308C145.992 452.502 147.25 452.004 148.571 451.869C150.506 451.686 152.458 451.905 154.304 452.511C156.371 453.136 158.533 454.074 160.882 454.575C162.012 454.827 163.176 454.896 164.328 454.778C165.399 454.615 166.449 454.337 167.461 453.949C169.207 453.178 171.036 452.606 172.911 452.245C174.219 452.02 175.563 452.161 176.796 452.651C177.673 453.042 178.002 453.449 177.97 453.48Z" fill="#DCDDEB"/>
<path d="M177.971 456.467C177.971 456.467 177.533 456.217 176.687 455.935C175.486 455.557 174.208 455.493 172.975 455.747C171.159 456.186 169.39 456.804 167.697 457.593C166.628 458.02 165.514 458.324 164.376 458.5C163.142 458.64 161.893 458.576 160.68 458.312C158.423 457.714 156.201 456.994 154.023 456.154C152.275 455.541 150.423 455.275 148.572 455.372C147.335 455.441 146.137 455.829 145.095 456.498C144.359 456.983 144.046 457.374 143.983 457.327C144.186 456.89 144.499 456.513 144.892 456.232C145.944 455.425 147.204 454.932 148.525 454.809C150.46 454.61 152.415 454.829 154.258 455.45C156.325 456.06 158.487 457.014 160.836 457.514C161.967 457.762 163.131 457.825 164.282 457.702C165.355 457.556 166.406 457.283 167.415 456.889C169.164 456.12 170.991 455.543 172.865 455.169C174.173 454.944 175.517 455.085 176.75 455.575C177.237 455.743 177.663 456.054 177.971 456.467Z" fill="#DCDDEB"/>
<path d="M149.136 458.171C149.136 458.28 148.87 458.421 148.776 458.827C148.682 459.234 148.854 459.719 149.434 459.625C150.013 459.531 150.045 459.031 149.81 458.655C149.575 458.28 149.262 458.264 149.246 458.155C149.23 458.046 149.685 457.811 150.233 458.264C150.388 458.405 150.507 458.58 150.581 458.776C150.654 458.972 150.68 459.183 150.656 459.39C150.608 459.659 150.476 459.905 150.279 460.093C150.082 460.281 149.83 460.402 149.559 460.438C149.289 460.488 149.011 460.451 148.763 460.333C148.516 460.215 148.312 460.022 148.181 459.781C148.093 459.59 148.054 459.38 148.067 459.169C148.081 458.959 148.147 458.756 148.259 458.577C148.635 457.983 149.168 458.061 149.136 458.171Z" fill="#DCDDEB"/>
<path d="M161.775 451.524C161.665 451.524 161.932 450.993 162.637 451.102C162.849 451.147 163.042 451.257 163.188 451.417C163.334 451.577 163.426 451.778 163.451 451.994C163.484 452.26 163.426 452.53 163.286 452.759C163.146 452.988 162.932 453.163 162.68 453.256C162.427 453.348 162.151 453.353 161.896 453.268C161.64 453.184 161.421 453.016 161.274 452.791C161.159 452.614 161.098 452.408 161.098 452.197C161.098 451.986 161.159 451.78 161.274 451.603C161.65 451.024 162.135 451.102 162.135 451.212C162.135 451.321 161.885 451.478 161.791 451.837C161.77 451.925 161.771 452.016 161.793 452.103C161.814 452.19 161.857 452.27 161.916 452.338C161.983 452.409 162.067 452.461 162.161 452.488C162.255 452.516 162.354 452.518 162.449 452.494C162.535 452.458 162.61 452.397 162.662 452.319C162.715 452.241 162.744 452.15 162.746 452.056C162.752 451.973 162.732 451.89 162.691 451.817C162.649 451.745 162.586 451.687 162.511 451.65C162.135 451.478 161.853 451.603 161.775 451.524Z" fill="#DCDDEB"/>
<path d="M174.007 457.968C174.007 457.874 174.477 457.671 175.025 458.187C175.188 458.346 175.303 458.548 175.355 458.769C175.408 458.991 175.397 459.222 175.323 459.438C175.247 459.724 175.076 459.975 174.837 460.151C174.598 460.326 174.306 460.415 174.01 460.402C173.714 460.389 173.431 460.276 173.208 460.081C172.986 459.885 172.837 459.62 172.786 459.328C172.735 459.099 172.758 458.859 172.851 458.644C172.943 458.428 173.101 458.246 173.302 458.124C173.976 457.733 174.43 458.124 174.336 458.202C174.242 458.281 173.945 458.202 173.647 458.578C173.574 458.65 173.524 458.741 173.501 458.841C173.479 458.941 173.486 459.045 173.522 459.141C173.561 459.252 173.63 459.35 173.721 459.424C173.812 459.499 173.922 459.547 174.039 459.563C174.162 459.559 174.282 459.52 174.385 459.451C174.487 459.382 174.568 459.285 174.618 459.172C174.668 459.075 174.693 458.968 174.693 458.859C174.693 458.75 174.668 458.643 174.618 458.546C174.352 458.171 173.992 458.093 174.007 457.968Z" fill="#DCDDEB"/>
<path d="M388.192 154.563L354.927 154.87L355.234 188.081L388.5 187.774L388.192 154.563Z" fill="#4E4B88"/>
<path d="M388.132 163.025C382.682 163.535 377.207 163.738 371.734 163.634C366.261 163.833 360.781 163.735 355.318 163.338C360.769 162.839 366.243 162.635 371.717 162.73C377.19 162.531 382.67 162.629 388.132 163.025Z" fill="#7976AB"/>
<path d="M378.042 173.326C377.886 172.853 377.758 172.371 377.659 171.882C377.263 170.607 376.462 169.496 375.376 168.716C374.585 168.16 373.669 167.806 372.709 167.684C371.749 167.563 370.774 167.678 369.869 168.02C368.756 168.434 367.798 169.183 367.128 170.163C366.458 171.143 366.108 172.306 366.127 173.492C366.147 174.678 366.533 175.83 367.235 176.788C367.936 177.746 368.917 178.463 370.044 178.841C370.955 179.165 371.931 179.262 372.888 179.122C373.845 178.983 374.753 178.612 375.533 178.041C376.606 177.245 377.389 176.121 377.763 174.84C377.855 174.347 377.971 173.859 378.112 173.378C378.24 173.887 378.24 174.419 378.112 174.927C377.847 176.356 377.074 177.641 375.934 178.546C375.084 179.231 374.073 179.689 372.997 179.878C371.921 180.067 370.815 179.979 369.782 179.624C368.501 179.184 367.387 178.358 366.596 177.26C365.804 176.163 365.373 174.847 365.361 173.494C365.35 172.141 365.759 170.818 366.532 169.706C367.305 168.595 368.404 167.751 369.678 167.289C370.705 166.92 371.809 166.815 372.887 166.986C373.966 167.156 374.984 167.596 375.847 168.263C376.998 169.154 377.795 170.424 378.095 171.847C378.201 172.337 378.183 172.845 378.042 173.326Z" fill="#7976AB"/>
<path d="M517.122 187.87H308.163V198.518H517.122V187.87Z" fill="#36346B"/>
<path d="M481.851 195.981H475.943V230.933H481.851V195.981Z" fill="#36346B"/>
<path d="M350.055 195.455H343.973V231.468H350.055V195.455Z" fill="#36346B"/>
<path d="M406.134 16.6943C409.684 16.9765 413.141 17.971 416.297 19.6181C419.453 21.2653 422.243 23.5313 424.501 26.2805C428.985 31.822 432.139 38.315 433.72 45.2616C437.205 58.5535 434.853 74.1767 430.949 87.3295C416.607 82.1101 407.877 66.6957 403.938 58.6231C397.717 45.8531 394.232 18.9908 406.134 16.6943Z" fill="#05C168"/>
<path d="M451.493 103.58C449.371 100.219 448.173 96.3587 448.02 92.3882C447.867 88.4178 448.765 84.4771 450.622 80.963C452.55 77.488 455.152 74.4308 458.276 71.9696C461.399 69.5084 464.982 67.6923 468.815 66.6272C472.301 65.5833 476.413 65.1658 479.445 67.2187C480.802 68.2763 481.854 69.6739 482.493 71.2691C483.133 72.8644 483.338 74.6003 483.087 76.3004C482.513 79.6944 481.059 82.8792 478.87 85.5386C471.795 94.9161 463.187 102.71 451.493 103.58Z" fill="#05C168"/>
<path d="M436.265 117.654C431.794 110.548 425.689 104.611 418.458 100.335C411.226 96.0594 403.076 93.569 394.686 93.071C390.416 92.8622 385.328 93.68 383.516 97.5249C381.703 101.37 384.335 105.841 387.28 108.92C393.574 115.223 401.597 119.523 410.337 121.278C419.076 123.034 428.141 122.166 436.387 118.785" fill="#05C168"/>
<path d="M451.615 149.163C451.331 148.244 451.133 147.3 451.023 146.345C450.709 144.605 450.291 141.891 449.838 138.603C448.521 130.041 448.328 121.344 449.263 112.732C450.293 104.07 453.626 95.84 458.917 88.8972C460.537 86.8232 462.403 84.9536 464.476 83.3299C465.19 82.7384 465.835 82.373 466.218 82.0947C466.42 81.9364 466.643 81.8075 466.881 81.7119C464.129 83.9536 461.633 86.4917 459.44 89.28C454.399 96.2368 451.22 104.363 450.204 112.889C449.306 121.42 449.417 130.028 450.535 138.533C450.901 141.7 451.197 144.309 451.423 146.293C451.556 147.244 451.62 148.203 451.615 149.163Z" fill="#DCDDEB"/>
<path d="M410.593 36.9116C410.809 37.2611 410.995 37.6277 411.151 38.0077L412.597 41.2263C413.835 44.0099 415.595 48.081 417.703 53.1264C421.938 63.1997 427.601 77.205 433.509 92.8108C439.416 108.417 444.453 122.665 447.955 133.035C449.698 138.254 451.092 142.412 452.016 145.335C452.434 146.727 452.782 147.84 453.061 148.693C453.203 149.075 453.302 149.472 453.358 149.876C453.155 149.519 452.997 149.14 452.887 148.745C452.573 147.91 452.173 146.814 451.685 145.439L447.345 133.261C443.703 122.961 438.632 108.747 432.672 93.1588C426.713 77.5703 421.189 63.5825 417.111 53.3874L412.266 41.4003C411.743 40.0432 411.308 38.9472 410.977 38.1121C410.804 37.7278 410.675 37.325 410.593 36.9116Z" fill="#DCDDEB"/>
<path d="M401.41 104.032C402.331 104.016 403.251 104.074 404.163 104.206C405.236 104.27 406.302 104.415 407.352 104.641C408.767 104.877 410.168 105.185 411.552 105.563L413.957 106.224C414.793 106.468 415.699 106.816 416.518 107.129C418.394 107.802 420.232 108.574 422.025 109.443C426.108 111.487 429.968 113.947 433.544 116.785C437.118 119.717 440.366 123.024 443.233 126.649C444.453 128.223 445.587 129.86 446.631 131.555C447.119 132.356 447.624 133.104 448.025 133.869L449.175 136.079C449.822 137.353 450.404 138.66 450.918 139.993C451.347 140.976 451.708 141.988 451.998 143.02C452.309 143.888 452.554 144.778 452.73 145.682C452.521 145.682 451.51 141.942 448.583 136.375L447.398 134.217C446.997 133.469 446.474 132.738 445.986 131.955C445.028 130.372 443.791 128.824 442.501 127.154C436.877 120.085 429.776 114.326 421.694 110.278C419.812 109.408 418.052 108.538 416.292 107.912C415.438 107.599 414.549 107.233 413.8 106.972L411.43 106.259C405.4 104.502 401.41 104.293 401.41 104.032Z" fill="#DCDDEB"/>
<path d="M424.326 136.322H475.96V166.49C475.96 169.298 475.406 172.078 474.33 174.673C473.254 177.267 471.676 179.624 469.688 181.609C467.699 183.595 465.338 185.17 462.739 186.244C460.141 187.319 457.356 187.872 454.543 187.872H445.743C440.063 187.872 434.616 185.619 430.599 181.609C426.583 177.6 424.326 172.161 424.326 166.49V136.322Z" fill="#615F91"/>
<path d="M506.278 256.117C505.787 256.691 505.091 257.049 504.339 257.117C503.587 257.184 502.838 256.955 502.253 256.478L414.805 184.02L418.469 179.641L505.87 252.117C506.451 252.596 506.819 253.285 506.896 254.034C506.972 254.782 506.75 255.531 506.278 256.117Z" fill="#7876B4"/>
<path d="M441.78 202.62C441.78 202.62 436.449 216.162 430.988 215.602C425.527 215.042 424.043 206.321 424.043 206.321C424.043 206.321 419.545 214.075 414.897 210.334C410.248 206.593 411.477 197.373 411.477 197.373C411.477 197.373 403.806 202.16 401.151 198.039C397.51 192.362 408.483 182.749 408.483 182.749C408.483 182.749 416.415 161.522 422.308 162.043C427.165 162.458 426.099 170.511 426.099 170.511C426.099 170.511 430.068 164.909 434.882 164.828C439.696 164.747 437.871 176.67 437.871 176.67C437.871 176.67 446.371 171.404 449.307 175.961C452.243 180.517 443.662 187.573 443.662 187.573C443.662 187.573 454.987 184.81 453.869 191.29C452.751 197.769 441.78 202.62 441.78 202.62Z" fill="#4B3CFB"/>
<path d="M412.851 147.09C408.263 143.281 402.086 148.278 402.086 148.278C402.086 148.278 403.431 142.43 400.497 140.898C394.526 137.743 387.848 151.116 387.848 151.116C387.848 151.116 369.447 158.344 369.25 164.275C369.053 170.206 376.913 169.527 376.913 169.527C375.896 170.51 375.13 171.723 374.68 173.063C374.231 174.403 374.11 175.831 374.329 177.227C375.131 181.946 386.566 177.939 386.566 177.939C386.566 177.939 382.958 187.254 387.967 189.303C391.542 190.768 395.281 186.273 397.149 183.55C395.787 186.085 394.186 190.482 397.666 193.175C399.349 194.501 401.947 192.463 404.523 189.429C404.765 190.157 405.211 190.799 405.808 191.281C406.406 191.762 407.129 192.062 407.892 192.145C411.969 192.747 414.839 185.579 414.687 180.953C418.906 180.003 423.005 178.304 421.938 175.24C421.51 174.18 420.846 173.233 419.995 172.469C419.144 171.706 418.129 171.148 417.028 170.837C419.688 166.657 422.436 161.426 421.585 158.495C420.059 153.187 413.115 158.9 413.115 158.9C413.115 158.9 417.439 150.898 412.851 147.09Z" fill="white"/>
<path d="M375.076 124.854C375.076 124.854 375.185 117.287 370.105 115.114C365.025 112.94 359.963 124.891 359.963 124.891C359.963 124.891 347.932 122.318 344.828 128.115C341.723 133.913 349.246 139.864 349.246 139.864C349.246 139.864 343.192 142.65 344.586 147.901C345.98 153.151 355.697 150.748 355.697 150.748C355.697 150.748 350.219 161.563 354.791 162.976C359.363 164.388 365.16 158.929 365.16 158.929C365.16 158.929 362.164 167.938 368.061 168.523C370.67 168.785 373.53 165.334 375.929 161.409C376.52 162.407 377.448 163.161 378.547 163.536C379.645 163.91 380.842 163.881 381.921 163.453C388.566 160.861 384.854 153.868 384.854 153.868C384.854 153.868 399.053 151.515 398.329 146.437C398.036 144.281 395.617 143.639 392.939 143.589C395.9 141.114 397.945 138.398 396.72 135.986C394.177 130.652 384.772 134.647 384.772 134.647C384.772 134.647 389.592 129.289 386.422 124.278C383.252 119.268 375.076 124.854 375.076 124.854Z" fill="#4B3CFB"/>
<path d="M502.189 248.822C502.189 248.822 504.544 248.347 505.496 249.321C507.566 251.458 504.14 254.332 504.14 254.332C500.793 257.558 497.274 260.603 493.601 263.453C493.601 263.453 437.24 334.519 426.344 339.269C417.684 343.188 365.701 342.428 345.455 341.977L326.732 403.732L342.148 462.969L238.849 464.322L263.068 404.634L259.119 390.81L250.03 372.142C227.881 421.522 212.536 498.834 207.207 525.175L207.588 527.55C207.736 531.602 208.294 535.628 209.253 539.568C209.717 541.545 210.522 543.425 211.632 545.126C212.877 547.31 214.423 549.309 216.224 551.064C216.602 551.351 216.886 551.744 217.038 552.193C217.191 552.642 217.206 553.126 217.08 553.583C216.955 554.041 216.695 554.45 216.335 554.759C215.974 555.068 215.53 555.262 215.058 555.316C212.964 555.221 207.873 551.373 204.519 544.746C201.164 538.12 198.666 549.568 197.667 553.701C196.668 557.834 193.028 570.541 191.505 571.253C189.269 572.275 187.746 570.161 188.841 565.98C189.935 561.8 192.243 549.283 190.078 548.855C187.913 548.428 183.155 569.638 183.155 569.638C183.155 569.638 182.869 574.317 180.3 573.937C175.637 573.225 182.322 551.064 183.012 548.974C183.44 547.501 181.085 547.003 180.633 548.57C180.181 550.138 176.398 569.804 171.64 569.139C168 568.617 176.969 550.874 175.494 546.361C174.019 541.849 170.07 560.517 166.596 559.876C165.311 559.639 164.384 559.282 168.214 548.879C171.515 541.031 175.231 533.364 179.348 525.911C184.796 469.382 215.677 368.745 229.309 326.229C231.353 319.862 235.111 314.178 240.17 309.796C245.23 305.415 251.398 302.506 258 301.385C272.582 298.971 287.328 297.677 302.109 297.513C307.961 297.442 309.008 296.611 314.884 296.349C319.533 296.31 324.178 296.627 328.778 297.299C342.315 298.725 409.786 305.684 413.14 302.501C416.899 298.962 468.811 249.249 468.811 249.249H469.001C470.35 245.76 471.424 242.17 472.213 238.514C472.644 236.548 472.733 234.523 472.474 232.528C472.268 230.023 471.708 227.56 470.809 225.213C469.786 223.146 471.784 220.914 473.664 221.864C475.543 222.814 478.541 228.419 478.779 235.853C479.017 243.288 488.747 230.628 488.747 230.628C490.981 229.464 495.08 229.355 493.601 238.229C495.132 238.184 496.655 238.459 498.073 239.036C498.299 239.143 498.487 239.316 498.61 239.533C498.734 239.75 498.787 239.999 498.763 240.247C498.625 241.368 498.625 242.5 498.763 243.62C498.763 243.62 501.761 243.359 502.189 244.689C502.425 246.057 502.425 247.454 502.189 248.822Z" fill="#FFBE9D"/>
<path d="M234.304 420.216C237.302 410.003 252.695 359.507 252.695 359.507C252.695 359.507 260.26 400.669 258.262 405.633C256.423 409.882 254.252 413.98 251.767 417.889C234.304 444.419 236.588 457.697 236.588 457.697L342.1 454.49C342.338 439.764 333.607 405.514 331.799 400.051C329.991 394.588 336.01 376.703 336.01 376.703C336.01 376.703 347.905 364.613 347.477 358.39C347.251 352.8 346.559 347.239 345.407 341.764L409.642 344.139L407.62 300.673L315.36 291.458C312.148 300.507 283.099 296.065 283.099 296.065C251.743 297.11 249.792 302.858 236.755 312.977C223.717 323.095 202.139 409.932 202.139 409.932L234.304 420.216Z" fill="#0075FF"/>
<path d="M296.684 409.932C294.856 410.258 292.993 410.354 291.141 410.217C287.691 410.217 282.957 409.979 277.747 409.457C272.536 408.934 267.826 408.198 264.471 407.533C262.622 407.295 260.808 406.832 259.071 406.155C260.931 406.156 262.787 406.331 264.614 406.678C267.992 407.105 272.679 407.699 277.866 408.222C283.052 408.744 287.762 409.1 291.165 409.338C293.019 409.361 294.867 409.56 296.684 409.932Z" fill="white"/>
<path d="M303.916 400.977C302.087 401.871 300.153 402.533 298.159 402.948C288.667 405.438 278.874 406.597 269.062 406.392C267.032 406.458 265.002 406.266 263.02 405.822C265.023 405.569 267.043 405.466 269.062 405.513C272.798 405.394 277.936 405.133 283.599 404.468C289.261 403.803 294.304 402.853 297.873 402.093C299.855 401.564 301.876 401.191 303.916 400.977Z" fill="white"/>
<path d="M339.413 361.024C339.365 362.835 339.117 364.635 338.675 366.392C338.057 369.693 337.105 374.206 335.892 379.147C334.679 384.087 333.513 388.647 332.466 391.735C332.045 393.503 331.422 395.216 330.61 396.842C330.743 395.036 331.078 393.252 331.61 391.521C332.514 387.816 333.537 383.541 334.679 378.862C335.821 374.182 336.915 369.907 337.819 366.202C338.141 364.418 338.676 362.68 339.413 361.024Z" fill="white"/>
<path d="M235.423 414.158C229.919 413.309 224.488 412.047 219.174 410.381C213.745 409.114 208.417 407.446 203.234 405.393C208.736 406.255 214.166 407.518 219.483 409.17C224.914 410.433 230.242 412.1 235.423 414.158Z" fill="white"/>
<path d="M346.55 341.241C345.652 341.395 344.735 341.395 343.838 341.241C341.353 340.987 338.913 340.404 336.581 339.507C332.69 338.047 329.147 335.79 326.18 332.882C323.214 329.974 320.89 326.478 319.357 322.62C317.663 318.375 316.939 313.807 317.24 309.247C317.346 305.487 318.472 301.826 320.499 298.654C321.924 296.518 324.054 294.946 326.518 294.212C327.176 294.031 327.857 293.943 328.54 293.951C329.016 293.951 329.254 293.951 329.254 293.951C329.254 293.951 328.255 293.951 326.661 294.593C324.4 295.426 322.483 296.989 321.213 299.034C317.977 304.117 317.073 313.404 320.523 322.073C322.128 326.161 324.642 329.832 327.874 332.809C330.522 335.246 333.573 337.206 336.891 338.605C340.004 339.833 343.243 340.717 346.55 341.241Z" fill="white"/>
<path d="M402.007 343.284C401.412 336.001 401.221 328.69 401.436 321.385C401.25 314.087 401.472 306.783 402.102 299.51C402.698 306.785 402.888 314.088 402.673 321.385C402.873 328.692 402.651 336.004 402.007 343.284Z" fill="white"/>
<path d="M314.741 294.118C315.002 288.822 315.55 282.836 315.55 282.836C315.55 282.836 328.682 281.387 329.467 267.849C330.252 254.31 329.467 223.076 329.467 223.076L305.676 210.916L279.269 231.651L283.337 299.344L307.556 300.888C309.407 300.939 311.203 300.255 312.55 298.986C313.897 297.717 314.685 295.966 314.741 294.118Z" fill="#FFBE9D"/>
<path d="M317.097 257.136C317.097 257.136 317.097 257.398 316.883 257.706C316.706 257.93 316.477 258.108 316.216 258.224C315.955 258.34 315.669 258.39 315.384 258.371C313.862 258.371 312.387 256.614 311.863 254.571C311.615 253.581 311.615 252.545 311.863 251.555C311.912 251.123 312.068 250.709 312.318 250.353C312.567 249.996 312.901 249.707 313.291 249.512C313.611 249.38 313.97 249.38 314.29 249.512C314.527 249.63 314.719 249.821 314.837 250.058C315.004 250.462 314.837 250.723 314.837 250.7C314.837 250.676 314.837 250.462 314.599 250.225C314.475 250.054 314.292 249.936 314.086 249.892C313.879 249.849 313.664 249.882 313.481 249.987C313.189 250.163 312.947 250.41 312.776 250.705C312.606 251 312.513 251.333 312.506 251.673C312.305 252.557 312.305 253.474 312.506 254.357C312.981 256.21 314.266 257.706 315.408 257.849C315.632 257.879 315.859 257.863 316.076 257.802C316.293 257.741 316.495 257.635 316.669 257.493C316.955 257.303 317.05 257.113 317.097 257.136Z" fill="#EB996E"/>
<path d="M337.628 215.759C335.796 209.536 329.158 206.449 323.115 204.739C313.908 202.126 303.964 200.986 294.971 204.287C285.978 207.589 275.177 213.384 275.177 223.289C269.872 222.861 266.826 227.493 264.733 233.241C263.394 236.743 262.592 240.426 262.354 244.167C261.688 257.135 258.048 275.044 249.626 284.545C244.868 289.842 238.277 293.499 235.565 300.102C233.186 305.827 234.423 312.62 232.211 318.415C230.236 323.522 225.882 327.156 222.695 331.597C219.447 336.636 217.535 342.416 217.14 348.395C216.745 354.374 217.878 360.355 220.434 365.776C223.009 371.058 226.634 375.762 231.088 379.6C235.542 383.439 240.732 386.332 246.343 388.103C257.455 391.478 269.306 391.594 280.482 388.435C288.87 386.433 296.695 382.56 303.369 377.106C310.198 371.538 314.888 363.785 316.644 355.159C318.333 345.468 315.621 335.611 313.599 325.968C307.271 295.494 309.079 293.903 317.073 265.615C317.263 265.116 317.358 264.593 317.501 264.095C317.644 263.596 317.715 263.358 317.81 262.978C318.037 261.86 318.157 260.723 318.167 259.582C316.999 260.015 315.732 260.107 314.514 259.846C313.296 259.585 312.178 258.983 311.291 258.109C310.403 257.178 309.783 256.024 309.498 254.769C309.213 253.515 309.274 252.206 309.674 250.983C310.235 249.646 311.071 248.441 312.129 247.447C313.186 246.453 314.441 245.691 315.812 245.212C318.452 244.119 321.284 243.549 323.877 242.338C329.372 239.725 333.179 234.31 335.772 228.633C337.904 224.699 338.562 220.134 337.628 215.759Z" fill="#6E7191"/>
<path d="M236.589 457.695L342.101 454.489L388.017 633.435L379.572 838.699H323.782L330.61 637.806L289.809 513.227L296.09 846.656L239.706 847.487L233.782 534.081C233.52 525.364 230.665 505.721 231.736 497.076L236.589 457.695Z" fill="#6E7191"/>
<path d="M303.845 515.768C302.118 515.876 300.384 515.773 298.682 515.459C295.494 515.079 291.141 514.414 286.359 513.464C281.577 512.514 277.294 511.421 274.202 510.543C272.548 510.18 270.949 509.605 269.443 508.832C269.443 508.476 277.199 510.329 286.715 512.253C296.232 514.177 303.892 515.412 303.845 515.768Z" fill="#A0A3BD"/>
<path d="M288.31 837.133C287.977 837.133 286.502 764.287 285.003 674.433C283.505 584.58 282.624 511.686 282.934 511.686C283.243 511.686 284.766 584.509 286.241 674.41C287.716 764.31 288.667 837.133 288.31 837.133Z" fill="#A0A3BD"/>
<path d="M371.507 827.441C371.481 827.117 371.481 826.792 371.507 826.468V823.617C371.507 821.052 371.697 817.371 371.84 812.691C372.173 803.191 372.649 789.391 373.244 772.48C374.528 738.467 376.336 691.581 378.311 639.825C378.311 639.327 378.311 638.852 378.311 638.424V638.59C365.821 588.711 354.52 543.44 346.312 510.687L336.796 471.947C335.702 467.411 334.869 463.872 334.274 461.402C333.989 460.238 333.798 459.335 333.632 458.646C333.539 458.337 333.483 458.018 333.465 457.696C333.589 457.996 333.685 458.306 333.751 458.623C333.941 459.288 334.179 460.19 334.512 461.33C335.155 463.706 336.082 467.316 337.272 471.829C339.651 480.997 343.005 494.203 347.193 510.473C355.472 543.203 366.891 588.355 379.548 638.305V638.472C379.548 638.899 379.548 639.398 379.548 639.873C377.431 691.628 375.504 738.491 374.1 772.503C373.363 789.438 372.744 803.143 372.316 812.691C372.078 817.442 371.887 821.052 371.769 823.617C371.769 824.829 371.626 825.779 371.602 826.468C371.606 826.795 371.574 827.121 371.507 827.441Z" fill="#A0A3BD"/>
<path d="M353.306 634.245C349.299 635.56 345.171 636.475 340.982 636.976C335.843 637.855 334.317 637.821 332.342 637.916V637.441C332.985 637.631 333.318 637.75 333.318 637.845C333.318 637.94 332.913 637.845 332.247 637.845H330.82L332.247 637.417C334.103 636.871 335.629 636.62 340.768 635.693C344.89 634.801 349.089 634.316 353.306 634.245Z" fill="#A0A3BD"/>
<path d="M352.331 641.061C348.62 641.23 344.902 641.064 341.221 640.562C337.505 640.486 334.263 640.038 330.618 639.308C338.053 638.703 345.078 639.322 352.331 641.061Z" fill="#A0A3BD"/>
<path opacity="0.2" d="M236.136 461.472C237.386 463.074 238.96 464.395 240.755 465.348C242.551 466.302 244.528 466.867 246.557 467.006C250.806 467.509 255.104 467.429 259.332 466.768C286.573 463.752 315.431 460.973 342.1 454.489C307.58 456.413 271.109 455.771 236.588 457.695L236.231 460.64" fill="#A0A3BD"/>
<g opacity="0.2">
<path opacity="0.2" d="M271.704 510.046L291.164 585.434L289.808 513.229L271.704 510.046Z" fill="black"/>
</g>
<path d="M474.005 107.079C480.201 109.434 477.732 116.89 477.732 116.89C477.732 116.89 482.779 115.321 485.185 118.9C487.591 122.479 479.147 123.719 480.468 124.975C481.789 126.231 487.434 128.994 483.393 132.165C479.351 135.336 473.958 130.454 473.958 130.454C473.958 130.454 472.763 133.389 468.109 134.08C463.454 134.771 465.341 127 465.341 127C465.341 127 462.338 131.034 460.263 124.692C459.934 123.93 459.784 123.102 459.824 122.272C459.863 121.443 460.092 120.634 460.492 119.906C460.893 119.178 461.454 118.55 462.133 118.071C462.813 117.592 463.593 117.274 464.414 117.142C464.414 117.142 461.505 111.584 464.005 110.203C466.505 108.821 471.175 113.343 471.175 113.343C471.175 113.343 470.908 105.902 474.005 107.079Z" fill="#407BFF"/>
<path d="M474.005 107.079C480.201 109.434 477.732 116.89 477.732 116.89C477.732 116.89 482.779 115.321 485.185 118.9C487.591 122.479 479.147 123.719 480.468 124.975C481.789 126.231 487.434 128.994 483.393 132.165C479.351 135.336 473.958 130.454 473.958 130.454C473.958 130.454 472.763 133.389 468.109 134.08C463.454 134.771 465.341 127 465.341 127C465.341 127 462.338 131.034 460.263 124.692C459.934 123.93 459.784 123.102 459.824 122.272C459.863 121.443 460.092 120.634 460.492 119.906C460.893 119.178 461.454 118.55 462.133 118.071C462.813 117.592 463.593 117.274 464.414 117.142C464.414 117.142 461.505 111.584 464.005 110.203C466.505 108.821 471.175 113.343 471.175 113.343C471.175 113.343 470.908 105.902 474.005 107.079Z" fill="#ACAAD1"/>
<path d="M517.027 138.867C518.19 141.693 514.92 143.231 514.92 143.231C514.92 143.231 517.043 144.408 516.602 146.371C516.162 148.333 513.064 145.884 513.08 146.732C513.096 147.579 513.945 150.358 511.602 149.997C509.259 149.636 509.165 146.308 509.165 146.308C508.627 146.439 508.066 146.434 507.53 146.295C506.995 146.155 506.503 145.884 506.099 145.507C504.385 144.173 507.592 142.368 507.592 142.368C507.592 142.368 505.297 142.65 506.759 139.934C506.912 139.583 507.143 139.272 507.434 139.023C507.725 138.774 508.07 138.594 508.441 138.497C508.812 138.4 509.2 138.389 509.576 138.464C509.952 138.539 510.306 138.698 510.611 138.93C510.611 138.93 511.555 136.183 512.813 136.591C514.071 136.999 514.024 139.997 514.024 139.997C514.024 139.997 516.429 137.454 517.027 138.867Z" fill="#407BFF"/>
<path d="M517.027 138.867C518.19 141.693 514.92 143.231 514.92 143.231C514.92 143.231 517.043 144.408 516.602 146.371C516.162 148.333 513.064 145.884 513.08 146.732C513.096 147.579 513.945 150.358 511.602 149.997C509.259 149.636 509.165 146.308 509.165 146.308C508.627 146.439 508.066 146.434 507.53 146.295C506.995 146.155 506.503 145.884 506.099 145.507C504.385 144.173 507.592 142.368 507.592 142.368C507.592 142.368 505.297 142.65 506.759 139.934C506.912 139.583 507.143 139.272 507.434 139.023C507.725 138.774 508.07 138.594 508.441 138.497C508.812 138.4 509.2 138.389 509.576 138.464C509.952 138.539 510.306 138.698 510.611 138.93C510.611 138.93 511.555 136.183 512.813 136.591C514.071 136.999 514.024 139.997 514.024 139.997C514.024 139.997 516.429 137.454 517.027 138.867Z" fill="#ACAAD1"/>
<path d="M483.031 165.632C479.76 168.631 476.034 164.91 476.034 164.91C476.034 164.91 475.468 168.411 472.59 168.772C469.713 169.133 471.505 163.701 470.342 164.157C469.178 164.612 465.829 167.108 465.153 163.733C464.477 160.358 469.005 158.599 469.005 158.599C468.547 157.936 468.268 157.165 468.194 156.363C468.119 155.56 468.253 154.752 468.581 154.016C469.556 151.033 473.675 154.487 473.675 154.487C473.675 154.487 472.103 151.488 476.584 152.147C477.134 152.186 477.668 152.347 478.147 152.619C478.626 152.891 479.037 153.267 479.351 153.719C479.665 154.171 479.873 154.688 479.96 155.231C480.048 155.774 480.011 156.33 479.855 156.857C479.855 156.857 484.069 156.857 484.147 158.694C484.226 160.53 480.075 162.022 480.075 162.022C480.075 162.022 484.666 164.141 483.031 165.632Z" fill="#407BFF"/>
<path d="M483.031 165.632C479.76 168.631 476.034 164.91 476.034 164.91C476.034 164.91 475.468 168.411 472.59 168.772C469.713 169.133 471.505 163.701 470.342 164.157C469.178 164.612 465.829 167.108 465.153 163.733C464.477 160.358 469.005 158.599 469.005 158.599C468.547 157.936 468.268 157.165 468.194 156.363C468.119 155.56 468.253 154.752 468.581 154.016C469.556 151.033 473.675 154.487 473.675 154.487C473.675 154.487 472.103 151.488 476.584 152.147C477.134 152.186 477.668 152.347 478.147 152.619C478.626 152.891 479.037 153.267 479.351 153.719C479.665 154.171 479.873 154.688 479.96 155.231C480.048 155.774 480.011 156.33 479.855 156.857C479.855 156.857 484.069 156.857 484.147 158.694C484.226 160.53 480.075 162.022 480.075 162.022C480.075 162.022 484.666 164.141 483.031 165.632Z" fill="#ACAAD1"/>
<path d="M329.5 258.119C324.3 259.719 317.333 253.452 314.5 250.119V269.119C314.5 273.619 318.1 282.019 320.5 281.619C323.5 281.119 332 273.619 329.5 258.119Z" fill="white"/>
<path d="M316 253.619C315.167 252.119 311.5 246.519 309.5 250.119C307 254.619 311 260.119 314.5 260.119" stroke="white" stroke-width="2"/>
</g>
</g>
<defs>
<clipPath id="clip0_1_583">
<rect width="518" height="676" fill="white"/>
</clipPath>
</defs>
</svg>
